<?xml version="1.0" standalone="no"?>
<!DOCTYPE svg PUBLIC "-//W3C//DTD SVG 20010904//EN"
 "http://www.w3.org/TR/2001/REC-SVG-20010904/DTD/svg10.dtd">
<svg version="1.0" xmlns="http://www.w3.org/2000/svg"
 width="500.000000pt" height="500.000000pt" viewBox="0 0 500.000000 500.000000"
 preserveAspectRatio="xMidYMid meet">

<g transform="translate(0.000000,500.000000) scale(0.100000,-0.100000)"
fill="#000000" stroke="none">

<path d="M1884 2986 c-3 -7 -4 -33 -2 -57 2 -37 7 -45 26 -47 18 -3 22 -10 22
-38 0 -37 -19 -47 -27 -14 -8 30 -25 24 -21 -7 3 -25 7 -28 38 -28 l35 0 0 50
c0 44 -2 50 -25 55 -20 5 -25 12 -25 38 0 37 18 48 23 15 2 -13 10 -23 18 -23
17 0 19 41 2 58 -16 16 -57 15 -64 -2z"/>
<path d="M1980 2895 c0 -87 3 -105 15 -105 11 0 15 12 15 45 0 33 4 45 15 45
11 0 15 -12 15 -45 0 -34 4 -45 15 -45 13 0 15 16 13 102 -2 70 -7 103 -15
106 -9 2 -13 -10 -13 -42 0 -34 -4 -46 -15 -46 -11 0 -15 12 -15 45 0 33 -4
45 -15 45 -12 0 -15 -18 -15 -105z"/>
<path d="M2090 2895 l0 -105 35 0 c19 0 35 5 35 10 0 6 -9 10 -20 10 -16 0
-20 7 -20 35 0 24 5 35 15 35 8 0 15 7 15 15 0 8 -7 15 -15 15 -16 0 -17 1
-19 40 -1 19 5 26 22 28 35 5 26 22 -13 22 l-35 0 0 -105z"/>
<path d="M2180 2895 c0 -87 3 -105 15 -105 10 0 15 11 16 33 l1 32 10 -32 c20
-61 33 -38 36 64 3 104 -1 113 -50 113 l-28 0 0 -105z m50 35 c0 -59 -16 -67
-22 -11 -4 45 -1 61 13 61 5 0 9 -22 9 -50z"/>
<path d="M2280 2895 l0 -105 35 0 c19 0 35 5 35 10 0 6 -10 10 -22 10 -19 0
-23 5 -22 32 1 22 6 34 17 36 20 4 23 32 3 32 -14 0 -26 36 -18 58 2 7 12 12
23 12 10 0 19 5 19 10 0 6 -16 10 -35 10 l-35 0 0 -105z"/>
<path d="M2370 2895 c0 -108 14 -140 26 -60 3 25 10 45 15 45 5 0 9 -20 9 -45
0 -33 4 -45 15 -45 12 0 15 18 15 105 0 58 -4 105 -9 105 -10 0 -21 -34 -21
-67 0 -13 -4 -23 -9 -23 -10 0 -21 34 -21 68 0 12 -4 22 -10 22 -6 0 -10 -42
-10 -105z"/>
<path d="M2477 2993 c-4 -3 -7 -51 -7 -105 l0 -98 40 0 c22 0 40 5 40 10 0 6
-11 10 -25 10 -22 0 -25 4 -25 34 0 25 5 35 20 39 11 3 20 10 20 16 0 6 -9 11
-20 11 -16 0 -20 7 -20 35 0 28 4 35 20 35 11 0 20 5 20 10 0 11 -53 14 -63 3z"/>
<path d="M1887 2663 c-4 -3 -7 -78 -7 -165 l0 -159 43 3 42 3 5 78 5 79 90
-129 c90 -127 91 -128 133 -131 l42 -3 0 215 0 216 -40 0 -39 0 -3 -137 -3
-137 -98 137 c-92 128 -100 137 -131 137 -18 0 -36 -3 -39 -7z"/>
<path d="M2260 2455 l0 -215 100 0 100 0 0 40 0 40 -60 0 -60 0 0 45 0 44 88
3 87 3 1 35 0 35 -85 5 -86 5 0 45 0 45 58 3 57 3 0 39 0 40 -100 0 -100 0 0
-215z"/>
<path d="M2880 2630 l0 -40 78 0 c88 0 122 -16 122 -56 0 -33 -32 -44 -126
-44 l-74 0 0 -125 0 -125 40 0 40 0 0 85 c0 78 2 85 20 85 15 0 30 -21 62 -85
l42 -85 43 0 c49 0 49 -8 -6 113 l-31 68 30 25 c77 65 48 186 -51 214 -19 6
-69 10 -111 10 l-78 0 0 -40z"/>
<path d="M2686 2652 c-9 -15 -156 -395 -156 -405 0 -4 19 -7 42 -5 l41 3 41
114 c22 63 41 110 43 105 2 -5 21 -56 42 -114 l38 -105 42 -3 c22 -2 41 1 41
6 0 13 -151 396 -160 405 -4 5 -10 4 -14 -1z"/>
<path d="M2228 2183 l-28 -4 0 -210 0 -209 39 0 c39 0 40 1 45 43 4 23 7 71 9
107 l2 65 50 -97 50 -98 40 0 40 0 52 103 52 102 0 -62 1 -63 39 0 38 0 6 58
c4 33 4 105 0 160 l-6 102 -39 0 -39 0 -60 -127 c-34 -71 -65 -139 -71 -153
-9 -23 -16 -12 -89 133 -44 86 -85 156 -92 156 -6 -1 -24 -4 -39 -6z"/>
<path d="M2680 1970 l0 -210 105 0 105 0 0 40 0 40 -60 0 -60 0 0 45 0 44 83
3 82 3 3 38 3 37 -85 0 -86 0 0 44 0 43 60 7 60 7 0 34 0 35 -105 0 -105 0 0
-210z"/>
</g>
</svg>
