<?xml version="1.0" encoding="UTF-8"?>
<!DOCTYPE svg PUBLIC "-//W3C//DTD SVG 1.1//EN" "http://www.w3.org/Graphics/SVG/1.1/DTD/svg11.dtd">
<svg xmlns="http://www.w3.org/2000/svg" version="1.1" width="900px" height="900px" style="shape-rendering:geometricPrecision; text-rendering:geometricPrecision; image-rendering:optimizeQuality; fill-rule:evenodd; clip-rule:evenodd" xmlns:xlink="http://www.w3.org/1999/xlink">
<g><path style="opacity:1" fill="#000000" d="M -0.5,-0.5 C 299.5,-0.5 599.5,-0.5 899.5,-0.5C 899.5,299.5 899.5,599.5 899.5,899.5C 599.5,899.5 299.5,899.5 -0.5,899.5C -0.5,599.5 -0.5,299.5 -0.5,-0.5 Z"/></g>
<g><path style="opacity:1" fill="#181817" d="M 316.5,297.5 C 316.631,298.376 316.298,299.043 315.5,299.5C 314.571,298.311 314.238,296.978 314.5,295.5C 314.5,284.833 314.5,274.167 314.5,263.5C 316.467,263.261 318.301,263.594 320,264.5C 321.478,283.107 322.644,283.107 323.5,264.5C 325.833,264.5 328.167,264.5 330.5,264.5C 331.607,271.01 332.607,270.843 333.5,264C 338.155,263.501 342.821,263.334 347.5,263.5C 348.167,268.833 345.833,271.167 340.5,270.5C 340.5,273.5 340.5,276.5 340.5,279.5C 344.909,278.899 346.242,280.566 344.5,284.5C 343.264,285.246 341.93,285.579 340.5,285.5C 340.5,289.167 340.5,292.833 340.5,296.5C 342.833,296.5 345.167,296.5 347.5,296.5C 347.5,297.833 347.5,299.167 347.5,300.5C 344.375,299.403 341.208,298.403 338,297.5C 337.5,287.506 337.334,277.506 337.5,267.5C 339.857,267.663 342.19,267.497 344.5,267C 341.183,266.502 337.85,266.335 334.5,266.5C 334.5,277.833 334.5,289.167 334.5,300.5C 332.5,300.5 330.5,300.5 328.5,300.5C 328.5,289.167 328.5,277.833 328.5,266.5C 327.5,266.5 326.5,266.5 325.5,266.5C 325.5,271.167 325.5,275.833 325.5,280.5C 322.938,279.629 320.272,279.629 317.5,280.5C 317.666,275.821 317.499,271.155 317,266.5C 316.5,276.828 316.334,287.161 316.5,297.5 Z"/></g>
<g><path style="opacity:1" fill="#c7d456" d="M 388.5,273.5 C 388.738,275.404 389.738,276.738 391.5,277.5C 392.562,279.234 392.562,280.901 391.5,282.5C 391.167,282.5 390.833,282.5 390.5,282.5C 385.93,277.428 381.93,271.928 378.5,266C 378.646,264.273 379.313,264.106 380.5,265.5C 382.903,268.569 385.569,271.236 388.5,273.5 Z"/></g>
<g><path style="opacity:1" fill="#c4d156" d="M 406.5,271.5 C 406.833,272.5 407.5,273.167 408.5,273.5C 408.427,275.027 409.094,276.027 410.5,276.5C 410.751,278.17 411.418,279.67 412.5,281C 411.944,281.383 411.611,281.883 411.5,282.5C 411.167,282.5 410.833,282.5 410.5,282.5C 407.798,278.137 404.464,274.47 400.5,271.5C 400.672,270.508 400.338,269.842 399.5,269.5C 399.489,267.983 398.823,266.816 397.5,266C 398,265.5 398.5,265 399,264.5C 401.37,267.039 403.87,269.372 406.5,271.5 Z"/></g>
<g><path style="opacity:1" fill="#7c8241" d="M 406.5,271.5 C 403.87,269.372 401.37,267.039 399,264.5C 398.5,265 398,265.5 397.5,266C 398.823,266.816 399.489,267.983 399.5,269.5C 397.413,268.415 396.08,266.749 395.5,264.5C 397.468,263.181 399.468,263.181 401.5,264.5C 403.605,266.592 405.272,268.925 406.5,271.5 Z"/></g>
<g><path style="opacity:1" fill="#787e40" d="M 390.5,264.5 C 389.325,264.281 388.325,264.614 387.5,265.5C 389.769,268.385 391.769,271.385 393.5,274.5C 390.364,271.571 387.697,268.238 385.5,264.5C 387.284,263.28 388.95,263.28 390.5,264.5 Z"/></g>
<g><path style="opacity:1" fill="#7c8241" d="M 382.5,264.5 C 384.526,267.518 386.526,270.518 388.5,273.5C 385.569,271.236 382.903,268.569 380.5,265.5C 379.313,264.106 378.646,264.273 378.5,266C 381.93,271.928 385.93,277.428 390.5,282.5C 389.833,282.5 389.167,282.5 388.5,282.5C 384.298,276.607 379.964,270.774 375.5,265C 377.74,263.193 380.073,263.026 382.5,264.5 Z"/></g>
<g><path style="opacity:1" fill="#7b8141" d="M 388.5,273.5 C 390.262,274.262 391.262,275.596 391.5,277.5C 389.738,276.738 388.738,275.404 388.5,273.5 Z"/></g>
<g><path style="opacity:1" fill="#666b38" d="M 408.5,273.5 C 409.906,273.973 410.573,274.973 410.5,276.5C 409.094,276.027 408.427,275.027 408.5,273.5 Z"/></g>
<g><path style="opacity:1" fill="#7b8141" d="M 400.5,271.5 C 404.464,274.47 407.798,278.137 410.5,282.5C 406.536,279.53 403.202,275.863 400.5,271.5 Z"/></g>
<g><path style="opacity:1" fill="#7a8040" d="M 410.5,276.5 C 413.21,277.914 414.21,279.914 413.5,282.5C 412.833,282.5 412.167,282.5 411.5,282.5C 411.611,281.883 411.944,281.383 412.5,281C 411.418,279.67 410.751,278.17 410.5,276.5 Z"/></g>
<g><path style="opacity:1" fill="#696e39" d="M 391.5,277.5 C 393.727,278.401 394.727,280.067 394.5,282.5C 393.5,282.5 392.5,282.5 391.5,282.5C 392.562,280.901 392.562,279.234 391.5,277.5 Z"/></g>
<g><path style="opacity:1" fill="#181816" d="M 382.5,264.5 C 383.5,264.5 384.5,264.5 385.5,264.5C 387.697,268.238 390.364,271.571 393.5,274.5C 393.5,274.833 393.5,275.167 393.5,275.5C 394.836,277.01 396.003,278.677 397,280.5C 397.816,281.823 398.983,282.489 400.5,282.5C 400.833,282.5 401.167,282.5 401.5,282.5C 402.5,282.5 403.5,282.5 404.5,282.5C 403.66,279.324 401.993,276.658 399.5,274.5C 398.5,274.167 397.833,273.5 397.5,272.5C 396.92,270.251 395.587,268.585 393.5,267.5C 393.5,266.833 393.5,266.167 393.5,265.5C 394.167,265.167 394.833,264.833 395.5,264.5C 396.08,266.749 397.413,268.415 399.5,269.5C 400.338,269.842 400.672,270.508 400.5,271.5C 403.202,275.863 406.536,279.53 410.5,282.5C 410.833,282.5 411.167,282.5 411.5,282.5C 412.167,282.5 412.833,282.5 413.5,282.5C 413.5,282.833 413.5,283.167 413.5,283.5C 410.956,283.104 408.789,283.771 407,285.5C 403.167,290.667 399.333,295.833 395.5,301C 396.056,301.383 396.389,301.883 396.5,302.5C 395.222,302.218 394.222,301.551 393.5,300.5C 393.5,299.5 393.5,298.5 393.5,297.5C 394.833,296.167 396.167,294.833 397.5,293.5C 398.906,293.027 399.573,292.027 399.5,290.5C 400.167,289.167 401.167,288.167 402.5,287.5C 404.104,286.713 404.771,285.38 404.5,283.5C 401.635,283.055 399.135,283.722 397,285.5C 393.532,290.934 389.699,296.101 385.5,301C 386.056,301.383 386.389,301.883 386.5,302.5C 385.167,302.167 383.833,301.833 382.5,301.5C 383.11,300.609 383.443,299.609 383.5,298.5C 383.833,297.5 384.5,296.833 385.5,296.5C 386.401,295.71 387.068,294.71 387.5,293.5C 389.262,292.738 390.262,291.404 390.5,289.5C 390.833,288.5 391.5,287.833 392.5,287.5C 394.104,286.713 394.771,285.38 394.5,283.5C 392.5,283.5 390.5,283.5 388.5,283.5C 388.5,283.167 388.5,282.833 388.5,282.5C 389.167,282.5 389.833,282.5 390.5,282.5C 390.833,282.5 391.167,282.5 391.5,282.5C 392.5,282.5 393.5,282.5 394.5,282.5C 394.727,280.067 393.727,278.401 391.5,277.5C 391.262,275.596 390.262,274.262 388.5,273.5C 386.526,270.518 384.526,267.518 382.5,264.5 Z"/></g>
<g><path style="opacity:1" fill="#777d3f" d="M 399.5,274.5 C 401.993,276.658 403.66,279.324 404.5,282.5C 403.5,282.5 402.5,282.5 401.5,282.5C 401.804,281.85 402.137,281.183 402.5,280.5C 400.962,278.757 399.962,276.757 399.5,274.5 Z"/></g>
<g><path style="opacity:1" fill="#7e8442" d="M 393.5,275.5 C 394.239,275.369 394.906,275.536 395.5,276C 397.054,278.287 398.721,280.454 400.5,282.5C 398.983,282.489 397.816,281.823 397,280.5C 396.003,278.677 394.836,277.01 393.5,275.5 Z"/></g>
<g><path style="opacity:1" fill="#747a3e" d="M 393.5,267.5 C 395.587,268.585 396.92,270.251 397.5,272.5C 395.413,271.415 394.08,269.749 393.5,267.5 Z"/></g>
<g><path style="opacity:1" fill="#808743" d="M 391.5,264.5 C 392.167,264.833 392.833,265.167 393.5,265.5C 393.5,266.167 393.5,266.833 393.5,267.5C 391.952,267.179 391.285,266.179 391.5,264.5 Z"/></g>
<g><path style="opacity:1" fill="#c4d056" d="M 390.5,264.5 C 390.833,264.5 391.167,264.5 391.5,264.5C 391.285,266.179 391.952,267.179 393.5,267.5C 394.08,269.749 395.413,271.415 397.5,272.5C 397.833,273.5 398.5,274.167 399.5,274.5C 399.962,276.757 400.962,278.757 402.5,280.5C 402.137,281.183 401.804,281.85 401.5,282.5C 401.167,282.5 400.833,282.5 400.5,282.5C 398.721,280.454 397.054,278.287 395.5,276C 394.906,275.536 394.239,275.369 393.5,275.5C 393.5,275.167 393.5,274.833 393.5,274.5C 391.769,271.385 389.769,268.385 387.5,265.5C 388.325,264.614 389.325,264.281 390.5,264.5 Z"/></g>
<g><path style="opacity:1" fill="#181817" d="M 259.5,265.5 C 260.919,264.549 262.585,264.216 264.5,264.5C 264.5,276.167 264.5,287.833 264.5,299.5C 263.5,299.5 262.5,299.5 261.5,299.5C 261.813,293.394 262.147,287.228 262.5,281C 261.695,276.251 261.195,271.418 261,266.5C 260.617,265.944 260.117,265.611 259.5,265.5 Z"/></g>
<g><path style="opacity:1" fill="#c1cd55" d="M 392.5,287.5 C 391.5,287.833 390.833,288.5 390.5,289.5C 388.468,290.048 387.468,291.381 387.5,293.5C 385.952,293.821 385.285,294.821 385.5,296.5C 384.5,296.833 383.833,297.5 383.5,298.5C 381.856,299.366 380.189,299.866 378.5,300C 382.122,295.255 385.622,290.422 389,285.5C 390.011,284.663 391.178,284.33 392.5,284.5C 392.5,285.5 392.5,286.5 392.5,287.5 Z"/></g>
<g><path style="opacity:1" fill="#c2cf55" d="M 402.5,287.5 C 401.167,288.167 400.167,289.167 399.5,290.5C 397.952,290.821 397.285,291.821 397.5,293.5C 396.167,294.833 394.833,296.167 393.5,297.5C 392.194,298.968 390.694,300.301 389,301.5C 388.333,300.5 388.333,299.5 389,298.5C 392.385,294.783 395.385,290.783 398,286.5C 399.11,284.963 400.61,284.297 402.5,284.5C 402.5,285.5 402.5,286.5 402.5,287.5 Z"/></g>
<g><path style="opacity:1" fill="#c4d156" d="M 411.5,288.5 C 410.833,288.5 410.5,288.833 410.5,289.5C 406.886,291.412 404.553,294.412 403.5,298.5C 401.956,298.703 400.622,299.37 399.5,300.5C 399.167,300.167 398.833,299.833 398.5,299.5C 402.216,294.033 406.382,289.033 411,284.5C 411.5,284.667 412,284.833 412.5,285C 411.663,286.011 411.33,287.178 411.5,288.5 Z"/></g>
<g><path style="opacity:1" fill="#797f40" d="M 413.5,283.5 C 414.326,285.548 413.659,287.215 411.5,288.5C 411.33,287.178 411.663,286.011 412.5,285C 412,284.833 411.5,284.667 411,284.5C 406.382,289.033 402.216,294.033 398.5,299.5C 398.833,299.833 399.167,300.167 399.5,300.5C 400.622,299.37 401.956,298.703 403.5,298.5C 402.264,301.621 399.931,302.955 396.5,302.5C 396.389,301.883 396.056,301.383 395.5,301C 399.333,295.833 403.167,290.667 407,285.5C 408.789,283.771 410.956,283.104 413.5,283.5 Z"/></g>
<g><path style="opacity:1" fill="#7a8041" d="M 402.5,287.5 C 402.5,286.5 402.5,285.5 402.5,284.5C 400.61,284.297 399.11,284.963 398,286.5C 395.385,290.783 392.385,294.783 389,298.5C 388.333,299.5 388.333,300.5 389,301.5C 390.694,300.301 392.194,298.968 393.5,297.5C 393.5,298.5 393.5,299.5 393.5,300.5C 391.412,301.939 389.079,302.606 386.5,302.5C 386.389,301.883 386.056,301.383 385.5,301C 389.699,296.101 393.532,290.934 397,285.5C 399.135,283.722 401.635,283.055 404.5,283.5C 404.771,285.38 404.104,286.713 402.5,287.5 Z"/></g>
<g><path style="opacity:1" fill="#7c8341" d="M 410.5,289.5 C 408.542,292.792 406.209,295.792 403.5,298.5C 404.553,294.412 406.886,291.412 410.5,289.5 Z"/></g>
<g><path style="opacity:1" fill="#777d3f" d="M 390.5,289.5 C 390.262,291.404 389.262,292.738 387.5,293.5C 387.468,291.381 388.468,290.048 390.5,289.5 Z"/></g>
<g><path style="opacity:1" fill="#808743" d="M 399.5,290.5 C 399.573,292.027 398.906,293.027 397.5,293.5C 397.285,291.821 397.952,290.821 399.5,290.5 Z"/></g>
<g><path style="opacity:1" fill="#7c8341" d="M 387.5,293.5 C 387.068,294.71 386.401,295.71 385.5,296.5C 385.285,294.821 385.952,293.821 387.5,293.5 Z"/></g>
<g><path style="opacity:1" fill="#131312" d="M 232.5,263.5 C 235.85,263.335 239.183,263.502 242.5,264C 243.357,264.689 244.023,265.522 244.5,266.5C 240.682,266.67 236.682,266.67 232.5,266.5C 232.215,271.897 232.549,277.23 233.5,282.5C 236.086,283.48 238.753,283.813 241.5,283.5C 241.173,288.214 241.507,292.88 242.5,297.5C 243.662,292.869 243.828,288.202 243,283.5C 240.667,282.833 238.333,282.167 236,281.5C 235.501,276.845 235.334,272.179 235.5,267.5C 240.906,266.735 242.906,269.069 241.5,274.5C 242.5,274.5 243.5,274.5 244.5,274.5C 244.215,272.712 244.548,271.045 245.5,269.5C 246.086,269.709 246.586,270.043 247,270.5C 246.079,265.102 248.246,262.769 253.5,263.5C 253.334,267.514 253.501,271.514 254,275.5C 254.667,276.833 255.333,276.833 256,275.5C 256.5,276.5 257,277.5 257.5,278.5C 255.892,279.318 254.225,279.985 252.5,280.5C 251.672,275.868 251.172,271.202 251,266.5C 250.5,277.828 250.333,289.162 250.5,300.5C 248.61,300.703 247.11,300.037 246,298.5C 245.196,299.804 244.029,300.471 242.5,300.5C 240.833,299.833 239.167,299.167 237.5,298.5C 235.06,300.922 232.726,300.922 230.5,298.5C 229.217,295.628 229.217,292.795 230.5,290C 235.382,288.623 237.882,290.457 238,295.5C 238.498,292.183 238.665,288.85 238.5,285.5C 234.683,286.174 231.85,284.841 230,281.5C 228.713,275.066 229.546,269.066 232.5,263.5 Z"/></g>
<g><path style="opacity:1" fill="#7a8040" d="M 388.5,283.5 C 390.5,283.5 392.5,283.5 394.5,283.5C 394.771,285.38 394.104,286.713 392.5,287.5C 392.5,286.5 392.5,285.5 392.5,284.5C 391.178,284.33 390.011,284.663 389,285.5C 385.622,290.422 382.122,295.255 378.5,300C 380.189,299.866 381.856,299.366 383.5,298.5C 383.443,299.609 383.11,300.609 382.5,301.5C 380.073,302.974 377.74,302.807 375.5,301C 380.051,295.289 384.384,289.456 388.5,283.5 Z"/></g>
<g><path style="opacity:1" fill="#121211" d="M 314.5,295.5 C 314.238,296.978 314.571,298.311 315.5,299.5C 316.298,299.043 316.631,298.376 316.5,297.5C 317.325,293.353 317.825,289.019 318,284.5C 320.333,281.833 322.667,281.833 325,284.5C 325.829,289.864 325.663,295.198 324.5,300.5C 323.667,299.5 322.833,298.5 322,297.5C 320.982,300.683 318.815,302.016 315.5,301.5C 313.9,301.449 312.4,301.116 311,300.5C 305.064,301.268 299.397,301.935 294,302.5C 292.326,301.324 290.826,299.99 289.5,298.5C 288.614,299.325 288.281,300.325 288.5,301.5C 285.15,301.665 281.817,301.498 278.5,301C 276.697,298.897 274.364,298.064 271.5,298.5C 271.168,288.478 271.501,278.478 272.5,268.5C 272.349,272.355 272.683,276.355 273.5,280.5C 275.5,280.5 277.5,280.5 279.5,280.5C 279.5,281.833 279.5,283.167 279.5,284.5C 277.208,284.244 275.041,284.577 273,285.5C 272.721,289.17 272.888,292.837 273.5,296.5C 275.199,296.38 276.865,296.046 278.5,295.5C 279.647,295.818 280.481,296.484 281,297.5C 281.333,286.5 281.667,275.5 282,264.5C 286.45,263.2 290.95,263.2 295.5,264.5C 296.298,271.45 296.798,278.45 297,285.5C 297.361,278.801 298.028,272.135 299,265.5C 300.87,264.257 303.036,263.59 305.5,263.5C 307.5,263.833 309.5,264.167 311.5,264.5C 307.623,265.197 303.79,265.864 300,266.5C 300.213,277.47 300.546,288.47 301,299.5C 301.718,300.451 302.551,300.617 303.5,300C 303.917,289.592 304.084,279.092 304,268.5C 305.77,267.724 307.603,267.89 309.5,269C 308.207,269.49 306.873,269.657 305.5,269.5C 305.616,272.86 305.949,276.193 306.5,279.5C 308.167,279.5 309.833,279.5 311.5,279.5C 311.785,281.288 311.452,282.955 310.5,284.5C 309.264,283.754 307.93,283.421 306.5,283.5C 305.705,287.785 305.372,292.119 305.5,296.5C 308.609,296.736 311.609,296.403 314.5,295.5 Z"/></g>
<g><path style="opacity:1" fill="#20201f" d="M 570.5,326.5 C 571.5,326.5 572.5,326.5 573.5,326.5C 572.589,335.126 572.255,343.792 572.5,352.5C 590.179,352.167 607.846,352.5 625.5,353.5C 607.176,354.666 588.842,354.833 570.5,354C 569.179,344.833 569.179,335.667 570.5,326.5 Z"/></g>
<g><path style="opacity:1" fill="#1a1a19" d="M 261.5,327.5 C 265.088,330.259 268.254,333.592 271,337.5C 273.667,341.347 276.167,345.347 278.5,349.5C 278.167,349.833 277.833,350.167 277.5,350.5C 271.799,342.991 266.465,335.324 261.5,327.5 Z"/></g>
<g><path style="opacity:1" fill="#1b1b1a" d="M 449.5,410.5 C 447.824,409.817 447.157,408.483 447.5,406.5C 447.5,399.833 447.5,393.167 447.5,386.5C 427.833,386.5 408.167,386.5 388.5,386.5C 388.189,375.448 388.522,364.448 389.5,353.5C 402.817,352.501 416.15,352.167 429.5,352.5C 429.169,344.14 429.502,335.807 430.5,327.5C 431.833,336.167 431.833,344.833 430.5,353.5C 417.216,354.482 403.883,354.815 390.5,354.5C 390.5,364.5 390.5,374.5 390.5,384.5C 409.503,384.333 428.503,384.5 447.5,385C 448.126,385.75 448.626,386.584 449,387.5C 449.5,395.159 449.666,402.826 449.5,410.5 Z"/></g>
<g><path style="opacity:1" fill="#171716" d="M 235.5,326.5 C 237.973,326.947 238.14,327.947 236,329.5C 235.5,364.498 235.333,399.498 235.5,434.5C 244.525,434.168 253.525,434.502 262.5,435.5C 252.94,436.817 243.44,436.817 234,435.5C 233.333,399.833 233.333,364.167 234,328.5C 234.717,327.956 235.217,327.289 235.5,326.5 Z"/></g>
<g><path style="opacity:1" fill="#1c1c1b" d="M 361.5,327.5 C 362.552,327.351 363.552,327.517 364.5,328C 363.836,375.433 363.169,422.933 362.5,470.5C 361.785,426.165 361.118,381.831 360.5,337.5C 360.539,334.083 360.873,330.75 361.5,327.5 Z"/></g>
<g><path style="opacity:1" fill="#131312" d="M 296.5,424.5 C 287.167,412.763 278,400.763 269,388.5C 266.666,384.646 264.499,380.646 262.5,376.5C 262.833,376.167 263.167,375.833 263.5,375.5C 270.472,386.067 277.972,396.401 286,406.5C 289.785,412.414 293.285,418.414 296.5,424.5 Z"/></g>
<g><path style="opacity:1" fill="#161615" d="M 517.5,347.5 C 518.496,347.414 519.329,347.748 520,348.5C 529.71,375.006 539.877,401.339 550.5,427.5C 550.167,428.167 549.833,428.833 549.5,429.5C 545.441,420.328 541.275,411.328 537,402.5C 531.536,383.632 525.036,365.299 517.5,347.5 Z"/></g>
<g><path style="opacity:1" fill="#191a19" d="M 569.5,386.5 C 570.5,386.5 571.5,386.5 572.5,386.5C 572.175,414.544 572.509,442.544 573.5,470.5C 572.349,471.731 571.183,471.731 570,470.5C 569.5,442.502 569.333,414.502 569.5,386.5 Z"/></g>
<g><path style="opacity:1" fill="#161616" d="M 506.5,390.5 C 507.583,390.539 508.583,390.873 509.5,391.5C 510.5,393.5 511.5,395.5 512.5,397.5C 512.167,398.167 511.833,398.833 511.5,399.5C 509.833,394.167 508.167,394.167 506.5,399.5C 498.394,422.992 490.227,446.325 482,469.5C 480.658,470.902 479.824,470.569 479.5,468.5C 485.733,450.423 492.233,432.423 499,414.5C 499.72,412.888 499.554,411.388 498.5,410C 499.448,409.517 500.448,409.351 501.5,409.5C 503.033,403.182 504.7,396.848 506.5,390.5 Z"/></g>
<g><path style="opacity:1" fill="#111110" d="M 447.5,406.5 C 447.157,408.483 447.824,409.817 449.5,410.5C 448.942,411.79 447.942,412.623 446.5,413C 428.26,413.174 410.093,413.674 392,414.5C 391.333,423.167 391.333,431.833 392,440.5C 394.906,443.369 398.406,444.702 402.5,444.5C 411.786,443.684 421.453,443.351 431.5,443.5C 431.832,452.857 431.498,462.19 430.5,471.5C 429.82,462.941 429.153,454.441 428.5,446C 416.3,445.196 404.133,445.363 392,446.5C 390.7,445.293 389.2,444.626 387.5,444.5C 387.5,433.5 387.5,422.5 387.5,411.5C 406.836,411.667 426.17,411.5 445.5,411C 446.099,409.378 446.766,407.878 447.5,406.5 Z"/></g>
<g><path style="opacity:1" fill="#151514" d="M 598.5,411.5 C 603.897,411.215 609.23,411.549 614.5,412.5C 616.421,416.299 618.588,419.966 621,423.5C 626.285,438.327 632.619,452.66 640,466.5C 640.351,470.099 639.351,470.433 637,467.5C 637.013,463.876 635.68,460.876 633,458.5C 626.604,443.82 620.104,429.153 613.5,414.5C 609.233,413.701 605.066,413.368 601,413.5C 599.679,432.35 599.012,451.35 599,470.5C 598.333,471.833 597.667,471.833 597,470.5C 596.333,451.5 596.333,432.5 597,413.5C 597.717,412.956 598.217,412.289 598.5,411.5 Z"/></g>
<g><path style="opacity:1" fill="#141413" d="M 512.5,401.5 C 515.549,406.122 518.049,411.122 520,416.5C 524.88,432.605 530.38,448.438 536.5,464C 536.355,464.772 536.022,465.439 535.5,466C 537.863,466.589 538.863,468.089 538.5,470.5C 546.507,471.56 554.507,471.56 562.5,470.5C 563.167,469.833 563.833,469.167 564.5,468.5C 560.974,464.389 559.641,459.722 560.5,454.5C 563.003,460.064 565.003,465.73 566.5,471.5C 559.951,472.064 553.451,472.731 547,473.5C 544.586,472.916 541.919,472.916 539,473.5C 538.05,472.978 537.216,472.311 536.5,471.5C 530.391,457.064 524.891,442.397 520,427.5C 517.177,418.865 514.677,410.198 512.5,401.5 Z"/></g>
<g><path style="opacity:1" fill="#181817" d="M 507.5,326.5 C 510.004,326.828 511.838,328.162 513,330.5C 514.677,335.44 516.51,340.273 518.5,345C 518.15,346.257 517.483,346.591 516.5,346C 514.833,343 513.167,340 511.5,337C 511.833,336.667 512.167,336.333 512.5,336C 510.771,334.211 510.104,332.044 510.5,329.5C 509.5,329.5 508.5,329.5 507.5,329.5C 489.664,376.34 471.33,423.34 452.5,470.5C 452.167,470 451.833,469.5 451.5,469C 466.917,428.187 482.417,387.354 498,346.5C 500.703,339.528 503.87,332.861 507.5,326.5 Z"/></g>
<g><path style="opacity:1" fill="#141413" d="M 296.5,424.5 C 298.376,426.884 300.542,429.218 303,431.5C 309.598,442.431 316.598,453.098 324,463.5C 326,464.833 327.667,466.5 329,468.5C 329.749,469.635 329.583,470.635 328.5,471.5C 316.82,456.22 306.153,440.553 296.5,424.5 Z"/></g>
<g><path style="opacity:1" fill="#151514" d="M 647.5,421.5 C 654.865,435.227 661.865,449.227 668.5,463.5C 669.88,466.318 669.713,468.985 668,471.5C 667.268,468.471 666.435,465.471 665.5,462.5C 659.704,450.602 654.204,438.602 649,426.5C 646.491,425.347 645.991,423.68 647.5,421.5 Z"/></g>
<g><path style="opacity:1" fill="#1a1a19" d="M 492.5,499.5 C 495.88,499.179 496.713,500.179 495,502.5C 494.169,558.404 494.336,614.237 495.5,670C 494.552,670.483 493.552,670.649 492.5,670.5C 492.5,613.5 492.5,556.5 492.5,499.5 Z"/></g>
<g><path style="opacity:1" fill="#191918" d="M 420.5,566.5 C 421.989,561.13 423.822,555.797 426,550.5C 432.561,536.287 439.394,522.287 446.5,508.5C 447.606,510.284 447.606,512.118 446.5,514C 437.879,532.133 429.212,549.633 420.5,566.5 Z"/></g>
<g><path style="opacity:1" fill="#171716" d="M 350.5,540.5 C 357.727,552.78 364.394,565.613 370.5,579C 370.167,579.5 369.833,580 369.5,580.5C 364.346,570.86 359.179,561.193 354,551.5C 352.342,548.023 351.175,544.357 350.5,540.5 Z"/></g>
<g><path style="opacity:1" fill="#161615" d="M 573.5,499.5 C 574.828,504.456 575.495,509.789 575.5,515.5C 575.489,521.079 575.156,526.579 574.5,532C 557.585,531.987 541.918,532.153 527.5,532.5C 527.5,544.5 527.5,556.5 527.5,568.5C 549.503,568.333 571.503,568.5 593.5,569C 595.271,569.535 595.604,570.369 594.5,571.5C 570.421,570.006 547.088,569.673 524.5,570.5C 524.177,557.254 524.511,544.087 525.5,531C 541.497,530.5 557.497,530.333 573.5,530.5C 573.5,520.167 573.5,509.833 573.5,499.5 Z"/></g>
<g><path style="opacity:1" fill="#151514" d="M 420.5,566.5 C 417.976,573.893 415.142,581.227 412,588.5C 406.853,598.947 401.52,609.281 396,619.5C 395.675,617.447 396.009,615.447 397,613.5C 403.914,598.951 410.747,584.284 417.5,569.5C 418.141,568.007 419.141,567.007 420.5,566.5 Z"/></g>
<g><path style="opacity:1" fill="#1d1d1c" d="M 524.5,600.5 C 526.48,612.789 527.147,625.456 526.5,638.5C 542.833,638.5 559.167,638.5 575.5,638.5C 575.667,649.172 575.5,659.839 575,670.5C 573.527,660.665 573.027,650.665 573.5,640.5C 557.497,640.667 541.497,640.5 525.5,640C 524.511,626.913 524.177,613.746 524.5,600.5 Z"/></g>
</svg>
